<?xml version="1.0" encoding="UTF-8"?>
<svg xmlns="http://www.w3.org/2000/svg" xmlns:xlink="http://www.w3.org/1999/xlink" width="149pt" height="74pt" viewBox="0 0 149 74" version="1.1">
<g id="surface1">
<path style=" stroke:none;fill-rule:nonzero;fill:rgb(80%,80%,80%);fill-opacity:1;" d="M 85.398438 72.480469 C 83.480469 72.476562 81.921875 70.914062 81.921875 68.988281 C 81.921875 67.058594 83.480469 65.496094 85.398438 65.496094 L 137.046875 65.496094 C 136.519531 64.519531 135.5 63.910156 134.394531 63.910156 L 31.730469 63.910156 C 28.941406 63.914062 26.683594 66.1875 26.683594 68.988281 C 26.683594 71.789062 28.941406 74.058594 31.730469 74.0625 L 134.394531 74.0625 C 135.5 74.0625 136.519531 73.453125 137.046875 72.480469 Z M 85.398438 72.480469 "/>
<path style=" stroke:none;fill-rule:nonzero;fill:rgb(80%,80%,80%);fill-opacity:1;" d="M 137.117188 67.417969 L 88.011719 67.417969 C 87.851562 67.417969 87.726562 67.292969 87.726562 67.132812 C 87.726562 66.976562 87.851562 66.847656 88.011719 66.847656 L 137.117188 66.847656 C 137.273438 66.847656 137.398438 66.976562 137.398438 67.132812 C 137.398438 67.292969 137.273438 67.417969 137.117188 67.417969 Z M 137.117188 67.417969 "/>
<path style=" stroke:none;fill-rule:nonzero;fill:rgb(80%,80%,80%);fill-opacity:1;" d="M 137.117188 69.273438 L 88.011719 69.273438 C 87.851562 69.273438 87.726562 69.144531 87.726562 68.988281 C 87.726562 68.828125 87.851562 68.703125 88.011719 68.703125 L 137.117188 68.703125 C 137.273438 68.703125 137.398438 68.828125 137.398438 68.988281 C 137.398438 69.144531 137.273438 69.273438 137.117188 69.273438 Z M 137.117188 69.273438 "/>
<path style=" stroke:none;fill-rule:nonzero;fill:rgb(80%,80%,80%);fill-opacity:1;" d="M 137.117188 71.125 L 88.011719 71.125 C 87.851562 71.125 87.726562 70.996094 87.726562 70.839844 C 87.726562 70.683594 87.851562 70.554688 88.011719 70.554688 L 137.117188 70.554688 C 137.273438 70.554688 137.398438 70.683594 137.398438 70.839844 C 137.398438 70.996094 137.273438 71.125 137.117188 71.125 Z M 137.117188 71.125 "/>
<path style=" stroke:none;fill-rule:nonzero;fill:rgb(42.352941%,38.823529%,100%);fill-opacity:1;" d="M 72.058594 62.644531 C 70.136719 62.644531 68.582031 61.078125 68.582031 59.152344 C 68.582031 57.222656 70.136719 55.660156 72.058594 55.660156 L 123.707031 55.660156 C 123.175781 54.683594 122.160156 54.078125 121.054688 54.074219 L 18.390625 54.074219 C 15.601562 54.078125 13.339844 56.351562 13.339844 59.152344 C 13.34375 61.953125 15.601562 64.222656 18.390625 64.226562 L 121.054688 64.226562 C 122.160156 64.226562 123.175781 63.621094 123.707031 62.644531 Z M 72.058594 62.644531 "/>
<path style=" stroke:none;fill-rule:nonzero;fill:rgb(80%,80%,80%);fill-opacity:1;" d="M 123.773438 57.585938 L 74.667969 57.585938 C 74.511719 57.582031 74.386719 57.457031 74.386719 57.300781 C 74.386719 57.140625 74.511719 57.015625 74.667969 57.015625 L 123.773438 57.015625 C 123.933594 57.015625 124.058594 57.140625 124.058594 57.300781 C 124.058594 57.457031 123.933594 57.585938 123.773438 57.585938 Z M 123.773438 57.585938 "/>
<path style=" stroke:none;fill-rule:nonzero;fill:rgb(80%,80%,80%);fill-opacity:1;" d="M 123.773438 59.4375 L 74.667969 59.4375 C 74.511719 59.4375 74.386719 59.308594 74.386719 59.152344 C 74.386719 58.996094 74.511719 58.867188 74.667969 58.867188 L 123.773438 58.867188 C 123.933594 58.867188 124.058594 58.996094 124.058594 59.152344 C 124.058594 59.308594 123.933594 59.4375 123.773438 59.4375 Z M 123.773438 59.4375 "/>
<path style=" stroke:none;fill-rule:nonzero;fill:rgb(80%,80%,80%);fill-opacity:1;" d="M 123.773438 61.289062 L 74.667969 61.289062 C 74.511719 61.289062 74.386719 61.164062 74.386719 61.003906 C 74.386719 60.847656 74.511719 60.71875 74.667969 60.71875 L 123.773438 60.71875 C 123.875 60.71875 123.972656 60.773438 124.023438 60.863281 C 124.074219 60.949219 124.074219 61.058594 124.023438 61.148438 C 123.972656 61.234375 123.875 61.289062 123.773438 61.289062 Z M 123.773438 61.289062 "/>
<path style=" stroke:none;fill-rule:nonzero;fill:rgb(80%,80%,80%);fill-opacity:1;" d="M 58.714844 52.480469 C 56.796875 52.480469 55.242188 50.917969 55.242188 48.988281 C 55.242188 47.0625 56.796875 45.5 58.714844 45.496094 L 110.367188 45.496094 C 109.835938 44.519531 108.820312 43.914062 107.714844 43.914062 L 5.046875 43.914062 C 2.257812 43.917969 0 46.1875 0 48.988281 C 0 51.789062 2.257812 54.058594 5.046875 54.066406 L 107.714844 54.066406 C 108.820312 54.0625 109.835938 53.457031 110.367188 52.480469 Z M 58.714844 52.480469 "/>
<path style=" stroke:none;fill-rule:nonzero;fill:rgb(80%,80%,80%);fill-opacity:1;" d="M 110.433594 47.421875 L 61.328125 47.421875 C 61.171875 47.421875 61.042969 47.292969 61.042969 47.136719 C 61.042969 46.980469 61.171875 46.851562 61.328125 46.851562 L 110.433594 46.851562 C 110.589844 46.851562 110.71875 46.976562 110.71875 47.136719 C 110.71875 47.292969 110.589844 47.421875 110.433594 47.421875 Z M 110.433594 47.421875 "/>
<path style=" stroke:none;fill-rule:nonzero;fill:rgb(80%,80%,80%);fill-opacity:1;" d="M 110.433594 49.273438 L 61.328125 49.273438 C 61.171875 49.273438 61.042969 49.144531 61.042969 48.988281 C 61.042969 48.832031 61.171875 48.703125 61.328125 48.703125 L 110.433594 48.703125 C 110.589844 48.703125 110.71875 48.832031 110.71875 48.988281 C 110.71875 49.144531 110.589844 49.273438 110.433594 49.273438 Z M 110.433594 49.273438 "/>
<path style=" stroke:none;fill-rule:nonzero;fill:rgb(80%,80%,80%);fill-opacity:1;" d="M 110.433594 51.125 L 61.328125 51.125 C 61.171875 51.125 61.042969 51 61.042969 50.84375 C 61.042969 50.683594 61.171875 50.558594 61.328125 50.558594 L 110.433594 50.558594 C 110.589844 50.558594 110.71875 50.683594 110.71875 50.84375 C 110.71875 51 110.589844 51.125 110.433594 51.125 Z M 110.433594 51.125 "/>
<path style=" stroke:none;fill-rule:nonzero;fill:rgb(42.352941%,38.823529%,100%);fill-opacity:1;" d="M 111.566406 30.800781 C 111.007812 30.800781 110.546875 30.363281 110.511719 29.804688 L 110.351562 27.386719 C 110.3125 26.800781 110.757812 26.292969 111.34375 26.253906 L 130.195312 25.011719 C 131.445312 24.929688 132.523438 25.882812 132.605469 27.136719 C 132.6875 28.390625 131.742188 29.476562 130.492188 29.558594 L 111.640625 30.796875 C 111.617188 30.800781 111.59375 30.800781 111.566406 30.800781 Z M 111.566406 30.800781 "/>
<path style=" stroke:none;fill-rule:nonzero;fill:rgb(18.431373%,18.039216%,25.490196%);fill-opacity:1;" d="M 115.285156 31.113281 C 114.714844 31.109375 114.246094 30.65625 114.226562 30.085938 L 114.089844 26.476562 C 114.070312 25.886719 114.527344 25.390625 115.113281 25.371094 L 130.613281 24.789062 C 131.199219 24.765625 131.691406 25.226562 131.714844 25.8125 L 131.847656 29.421875 C 131.871094 30.011719 131.414062 30.507812 130.828125 30.527344 L 115.324219 31.109375 C 115.3125 31.113281 115.296875 31.113281 115.285156 31.113281 Z M 115.285156 31.113281 "/>
<path style=" stroke:none;fill-rule:nonzero;fill:rgb(18.431373%,18.039216%,25.490196%);fill-opacity:1;" d="M 133.453125 64.382812 L 131.039062 64.382812 C 130.453125 64.382812 129.980469 63.90625 129.976562 63.316406 L 129.976562 43.132812 C 129.980469 42.542969 130.453125 42.066406 131.039062 42.066406 L 133.453125 42.066406 C 134.039062 42.066406 134.511719 42.542969 134.511719 43.132812 L 134.511719 63.316406 C 134.511719 63.90625 134.039062 64.382812 133.453125 64.382812 Z M 133.453125 64.382812 "/>
<path style=" stroke:none;fill-rule:nonzero;fill:rgb(18.431373%,18.039216%,25.490196%);fill-opacity:1;" d="M 122.75 53.714844 L 120.6875 52.460938 C 120.183594 52.152344 120.023438 51.5 120.328125 50.996094 L 130.746094 33.734375 C 131.050781 33.230469 131.703125 33.070312 132.203125 33.375 L 134.265625 34.628906 C 134.769531 34.933594 134.929688 35.589844 134.625 36.09375 L 124.207031 53.355469 C 123.902344 53.859375 123.25 54.019531 122.75 53.714844 Z M 122.75 53.714844 "/>
<path style=" stroke:none;fill-rule:nonzero;fill:rgb(42.352941%,38.823529%,100%);fill-opacity:1;" d="M 138.121094 12.632812 C 138.121094 17.253906 134.390625 21.003906 129.789062 21.003906 C 125.1875 21.003906 121.457031 17.253906 121.457031 12.632812 C 121.457031 8.011719 125.1875 4.265625 129.789062 4.265625 C 134.390625 4.265625 138.121094 8.011719 138.121094 12.632812 Z M 138.121094 12.632812 "/>
<path style=" stroke:none;fill-rule:nonzero;fill:rgb(18.431373%,18.039216%,25.490196%);fill-opacity:1;" d="M 125.277344 15.492188 C 125.011719 15.402344 124.765625 15.257812 124.558594 15.066406 C 124.277344 14.789062 124.136719 14.402344 124.167969 14.007812 C 124.1875 13.730469 124.332031 13.472656 124.566406 13.320312 C 124.863281 13.125 125.261719 13.125 125.667969 13.304688 L 125.652344 10.039062 L 125.980469 10.039062 L 126 13.878906 L 125.746094 13.71875 C 125.453125 13.535156 125.039062 13.40625 124.742188 13.59375 C 124.59375 13.695312 124.503906 13.863281 124.496094 14.039062 C 124.472656 14.332031 124.578125 14.621094 124.78125 14.828125 C 125.144531 15.175781 125.671875 15.28125 126.269531 15.378906 L 126.21875 15.703125 C 125.898438 15.660156 125.585938 15.589844 125.277344 15.492188 Z M 125.277344 15.492188 "/>
<path style=" stroke:none;fill-rule:nonzero;fill:rgb(18.431373%,18.039216%,25.490196%);fill-opacity:1;" d="M 122.242188 10.199219 L 122.285156 9.875 L 124.03125 10.105469 L 123.988281 10.429688 Z M 122.242188 10.199219 "/>
<path style=" stroke:none;fill-rule:nonzero;fill:rgb(18.431373%,18.039216%,25.490196%);fill-opacity:1;" d="M 127.75 10.929688 L 127.792969 10.605469 L 129.535156 10.835938 L 129.492188 11.160156 Z M 127.75 10.929688 "/>
<path style=" stroke:none;fill-rule:nonzero;fill:rgb(18.431373%,18.039216%,25.490196%);fill-opacity:1;" d="M 136.746094 48.546875 L 122.695312 48.546875 C 121.929688 48.546875 121.308594 47.925781 121.308594 47.152344 L 124.25 24.5 C 124.253906 23.734375 124.875 23.117188 125.636719 23.117188 L 130.625 23.117188 C 134.769531 23.121094 138.128906 26.496094 138.136719 30.660156 L 138.136719 47.152344 C 138.132812 47.925781 137.511719 48.546875 136.746094 48.546875 Z M 136.746094 48.546875 "/>
<path style=" stroke:none;fill-rule:nonzero;fill:rgb(42.352941%,38.823529%,100%);fill-opacity:1;" d="M 148.835938 39.621094 C 149.011719 40.003906 148.949219 40.453125 148.675781 40.773438 L 147.101562 42.605469 C 146.71875 43.050781 146.046875 43.097656 145.601562 42.714844 L 131.308594 30.308594 C 130.359375 29.488281 130.253906 28.050781 131.074219 27.097656 C 131.890625 26.144531 133.324219 26.042969 134.273438 26.863281 L 148.566406 39.265625 C 148.679688 39.367188 148.773438 39.488281 148.835938 39.621094 Z M 148.835938 39.621094 "/>
<path style=" stroke:none;fill-rule:nonzero;fill:rgb(18.431373%,18.039216%,25.490196%);fill-opacity:1;" d="M 145.679688 35.527344 C 145.855469 35.910156 145.796875 36.359375 145.523438 36.679688 L 142.828125 39.808594 C 142.445312 40.253906 141.773438 40.300781 141.332031 39.917969 L 129.59375 29.734375 C 129.148438 29.347656 129.101562 28.675781 129.484375 28.230469 L 132.175781 25.097656 C 132.558594 24.652344 133.230469 24.605469 133.671875 24.988281 L 145.414062 35.175781 C 145.527344 35.273438 145.617188 35.394531 145.679688 35.527344 Z M 145.679688 35.527344 "/>
<path style=" stroke:none;fill-rule:nonzero;fill:rgb(18.431373%,18.039216%,25.490196%);fill-opacity:1;" d="M 129.945312 7.671875 C 128.832031 6.746094 127.34375 7.621094 126.082031 7.496094 C 124.878906 7.378906 123.90625 6.3125 123.644531 5.167969 C 123.335938 3.828125 124.003906 2.472656 125.011719 1.613281 C 126.113281 0.675781 127.59375 0.382812 129.003906 0.527344 C 130.621094 0.691406 132.113281 1.417969 133.453125 2.308594 C 134.746094 3.136719 135.941406 4.113281 137.011719 5.21875 C 137.972656 6.246094 138.789062 7.472656 139.070312 8.867188 C 139.328125 10.136719 139.175781 11.554688 138.445312 12.648438 C 138.058594 13.207031 137.535156 13.660156 136.921875 13.957031 C 136.285156 14.289062 135.605469 14.527344 134.988281 14.898438 C 134.054688 15.457031 133.160156 16.597656 133.480469 17.765625 C 133.546875 18.019531 133.675781 18.253906 133.855469 18.445312 C 134.070312 18.675781 134.445312 18.359375 134.230469 18.125 C 133.851562 17.71875 133.855469 17.167969 134.042969 16.667969 C 134.269531 16.109375 134.675781 15.640625 135.199219 15.339844 C 135.84375 14.953125 136.5625 14.710938 137.222656 14.355469 C 137.855469 14.03125 138.402344 13.558594 138.816406 12.976562 C 139.59375 11.84375 139.808594 10.386719 139.601562 9.046875 C 139.375 7.59375 138.605469 6.289062 137.652344 5.199219 C 136.613281 4.011719 135.347656 3.015625 134.058594 2.121094 C 132.671875 1.164062 131.144531 0.359375 129.46875 0.09375 C 128.015625 -0.140625 126.445312 0.0507812 125.195312 0.867188 C 124.027344 1.628906 123.144531 2.921875 123.078125 4.34375 C 123.039062 5.664062 123.710938 6.902344 124.835938 7.582031 C 125.402344 7.910156 126.058594 8.050781 126.707031 7.980469 C 127.402344 7.925781 128.097656 7.695312 128.796875 7.742188 C 129.117188 7.757812 129.421875 7.871094 129.664062 8.074219 C 129.910156 8.277344 130.1875 7.871094 129.945312 7.671875 Z M 129.945312 7.671875 "/>
<path style=" stroke:none;fill-rule:nonzero;fill:rgb(18.431373%,18.039216%,25.490196%);fill-opacity:1;" d="M 120.148438 51.285156 C 120.152344 51.269531 120.152344 51.25 120.15625 51.230469 C 120.214844 50.953125 120.382812 50.710938 120.621094 50.558594 L 122.648438 49.246094 C 123.140625 48.929688 123.796875 49.070312 124.113281 49.566406 L 130.367188 59.296875 C 130.683594 59.792969 130.542969 60.453125 130.050781 60.773438 L 128.023438 62.085938 C 127.53125 62.402344 126.871094 62.261719 126.554688 61.765625 L 120.304688 52.035156 C 120.160156 51.8125 120.105469 51.546875 120.148438 51.285156 Z M 120.148438 51.285156 "/>
</g>
</svg>
