<?xml version="1.0" encoding="UTF-8"?>
<svg xmlns="http://www.w3.org/2000/svg" xmlns:xlink="http://www.w3.org/1999/xlink" width="250pt" height="278pt" viewBox="0 0 250 278" version="1.1">
<g id="surface1">
<path style=" stroke:none;fill-rule:nonzero;fill:rgb(24.705882%,23.921569%,33.72549%);fill-opacity:1;" d="M 104.546875 158.101562 C 105.222656 158.390625 105.53125 159.171875 105.242188 159.84375 L 103.441406 164.023438 L 103.644531 164.125 L 102.414062 166.960938 L 102.21875 166.851562 L 95.757812 181.824219 C 95.300781 182.882812 94.128906 183.441406 93.015625 183.125 L 82.972656 180.277344 C 82.476562 180.136719 82.070312 179.785156 81.859375 179.316406 C 81.648438 178.847656 81.652344 178.3125 81.878906 177.851562 L 92 156.902344 C 92.4375 155.996094 93.449219 155.515625 94.429688 155.742188 L 104.3125 158.027344 C 104.394531 158.042969 104.472656 158.070312 104.546875 158.101562 Z M 104.546875 158.101562 "/>
<path style=" stroke:none;fill-rule:nonzero;fill:rgb(0%,74.901961%,65.098039%);fill-opacity:1;" d="M 96.1875 157.355469 L 101.382812 158.558594 C 101.578125 158.601562 101.773438 158.511719 101.867188 158.339844 C 101.972656 158.140625 102.199219 158.039062 102.414062 158.089844 L 103.511719 158.34375 C 103.8125 158.414062 104.066406 158.613281 104.207031 158.890625 C 104.347656 159.164062 104.359375 159.488281 104.234375 159.773438 L 94.886719 181.484375 C 94.648438 182.042969 94.027344 182.332031 93.441406 182.15625 L 83.46875 179.152344 C 83.214844 179.074219 83.003906 178.890625 82.894531 178.644531 C 82.785156 178.398438 82.789062 178.117188 82.902344 177.875 L 92.785156 157.066406 C 93.082031 156.433594 93.785156 156.09375 94.464844 156.253906 L 95.621094 156.519531 C 95.5625 156.902344 95.808594 157.269531 96.1875 157.355469 Z M 96.1875 157.355469 "/>
<path style=" stroke:none;fill-rule:nonzero;fill:rgb(80%,80%,80%);fill-opacity:1;" d="M 136.683594 45.253906 C 124.15625 45.253906 114.003906 35.125 114.003906 22.628906 C 114.003906 10.128906 124.15625 0 136.683594 0 C 149.207031 0 159.359375 10.128906 159.359375 22.628906 C 159.347656 35.117188 149.203125 45.242188 136.683594 45.253906 Z M 136.683594 1.078125 C 124.753906 1.078125 115.085938 10.726562 115.085938 22.628906 C 115.085938 34.53125 124.753906 44.179688 136.683594 44.179688 C 148.609375 44.179688 158.28125 34.53125 158.28125 22.628906 C 158.265625 10.730469 148.605469 1.089844 136.683594 1.078125 Z M 136.683594 1.078125 "/>
<path style=" stroke:none;fill-rule:nonzero;fill:rgb(80%,80%,80%);fill-opacity:1;" d="M 224.15625 66.265625 C 211.632812 66.265625 201.476562 56.136719 201.476562 43.640625 C 201.476562 31.140625 211.632812 21.011719 224.15625 21.011719 C 236.679688 21.011719 246.832031 31.140625 246.832031 43.640625 C 246.820312 56.128906 236.675781 66.253906 224.15625 66.265625 Z M 224.15625 22.089844 C 212.226562 22.089844 202.558594 31.738281 202.558594 43.640625 C 202.558594 55.542969 212.226562 65.191406 224.15625 65.191406 C 236.085938 65.191406 245.753906 55.542969 245.753906 43.640625 C 245.742188 31.742188 236.078125 22.101562 224.15625 22.089844 Z M 224.15625 22.089844 "/>
<path style=" stroke:none;fill-rule:nonzero;fill:rgb(80%,80%,80%);fill-opacity:1;" d="M 183.660156 137.921875 C 171.132812 137.921875 160.980469 127.792969 160.980469 115.292969 C 160.980469 102.796875 171.132812 92.667969 183.660156 92.667969 C 196.183594 92.667969 206.335938 102.796875 206.335938 115.292969 C 206.324219 127.785156 196.179688 137.910156 183.660156 137.921875 Z M 183.660156 93.746094 C 171.730469 93.746094 162.0625 103.394531 162.0625 115.292969 C 162.0625 127.195312 171.730469 136.84375 183.660156 136.84375 C 195.585938 136.84375 205.257812 127.195312 205.257812 115.292969 C 205.242188 103.398438 195.582031 93.757812 183.660156 93.746094 Z M 183.660156 93.746094 "/>
<path style=" stroke:none;fill-rule:nonzero;fill:rgb(24.705882%,23.921569%,33.72549%);fill-opacity:1;" d="M 237.113281 37.441406 L 239.816406 36.902344 C 239.816406 36.902344 237.546875 39.4375 237.113281 39.597656 C 237.074219 40.136719 237.074219 40.675781 237.113281 41.214844 C 231.929688 63.410156 212.816406 53.605469 212.816406 53.605469 C 219.78125 53.765625 220.375 50.910156 220.375 50.910156 C 216.328125 50.320312 215.515625 47.679688 215.515625 47.679688 C 216.269531 48.074219 217.199219 47.84375 217.675781 47.140625 C 213.300781 46.007812 213.898438 41.753906 213.898438 41.753906 C 214.675781 42.3125 215.585938 42.667969 216.542969 42.777344 C 216.054688 42.183594 211.953125 37.28125 214.4375 34.75 C 214.4375 34.75 217.460938 40.136719 225.398438 40.621094 L 225.9375 40.511719 C 225.847656 40.125 225.808594 39.726562 225.828125 39.328125 C 225.828125 36.203125 228.367188 33.671875 231.5 33.671875 C 235.277344 33.671875 236.089844 35.828125 236.089844 35.828125 L 238.789062 34.210938 C 238.734375 34.210938 238.464844 36.902344 237.113281 37.441406 Z M 237.113281 37.441406 "/>
<path style=" stroke:none;fill-rule:nonzero;fill:rgb(24.705882%,23.921569%,33.72549%);fill-opacity:1;" d="M 193.738281 102.902344 L 173.726562 102.902344 C 173.207031 102.878906 172.699219 103.0625 172.316406 103.410156 C 171.929688 103.761719 171.703125 104.25 171.679688 104.765625 L 171.679688 124.78125 C 171.710938 125.898438 172.609375 126.796875 173.730469 126.828125 L 193.734375 126.828125 C 194.832031 126.785156 195.6875 125.871094 195.660156 124.777344 L 195.65625 104.765625 C 195.667969 104.261719 195.464844 103.773438 195.101562 103.421875 C 194.738281 103.066406 194.246094 102.878906 193.738281 102.902344 Z M 179.113281 122.847656 L 175.679688 122.847656 L 175.675781 112.191406 L 179.113281 112.191406 Z M 177.511719 110.570312 L 177.488281 110.570312 C 176.460938 110.5625 175.628906 109.726562 175.632812 108.699219 C 175.636719 107.671875 176.472656 106.84375 177.5 106.84375 C 178.53125 106.84375 179.367188 107.671875 179.367188 108.699219 C 179.371094 109.726562 178.542969 110.5625 177.511719 110.570312 Z M 191.667969 122.847656 L 188.234375 122.847656 L 188.234375 117.019531 C 188.230469 115.621094 187.730469 114.667969 186.488281 114.667969 C 185.691406 114.675781 184.988281 115.183594 184.726562 115.933594 C 184.636719 116.207031 184.597656 116.492188 184.609375 116.777344 L 184.609375 122.847656 L 181.175781 122.847656 L 181.171875 112.191406 L 184.609375 112.1875 L 184.609375 113.671875 C 185.246094 112.574219 186.433594 111.90625 187.707031 111.941406 C 189.960938 111.9375 191.667969 113.421875 191.667969 116.621094 Z M 191.667969 122.847656 "/>
<path style=" stroke:none;fill-rule:evenodd;fill:rgb(24.705882%,23.921569%,33.72549%);fill-opacity:1;" d="M 151.507812 22.714844 C 151.507812 14.847656 145.332031 8.359375 137.457031 7.949219 C 129.582031 7.535156 122.761719 13.351562 121.9375 21.175781 C 121.117188 29 126.578125 36.101562 134.367188 37.328125 L 134.367188 26.992188 L 130.601562 26.992188 L 130.601562 22.714844 L 134.367188 22.714844 L 134.367188 19.457031 C 134.367188 15.75 136.582031 13.703125 139.964844 13.703125 C 141.078125 13.71875 142.1875 13.8125 143.285156 13.992188 L 143.285156 17.632812 L 141.414062 17.632812 C 139.574219 17.632812 139 18.769531 139 19.941406 L 139 22.71875 L 143.109375 22.71875 L 142.453125 26.996094 L 139 26.996094 L 139 37.332031 C 146.203125 36.191406 151.507812 29.996094 151.507812 22.714844 Z M 151.507812 22.714844 "/>
<path style=" stroke:none;fill-rule:nonzero;fill:rgb(100%,72.156863%,72.156863%);fill-opacity:1;" d="M 71.457031 271.242188 L 77.628906 271.242188 L 80.566406 247.484375 L 71.453125 247.488281 Z M 71.457031 271.242188 "/>
<path style=" stroke:none;fill-rule:nonzero;fill:rgb(18.431373%,18.039216%,25.490196%);fill-opacity:1;" d="M 89.535156 276.960938 L 70.132812 276.964844 L 70.132812 269.484375 L 82.039062 269.484375 C 86.179688 269.484375 89.535156 272.832031 89.535156 276.960938 Z M 89.535156 276.960938 "/>
<path style=" stroke:none;fill-rule:nonzero;fill:rgb(100%,72.156863%,72.156863%);fill-opacity:1;" d="M 38.183594 271.242188 L 44.355469 271.242188 L 47.292969 247.484375 L 38.179688 247.488281 Z M 38.183594 271.242188 "/>
<path style=" stroke:none;fill-rule:nonzero;fill:rgb(18.431373%,18.039216%,25.490196%);fill-opacity:1;" d="M 56.261719 276.960938 L 36.859375 276.964844 L 36.859375 269.484375 L 48.765625 269.484375 C 52.90625 269.484375 56.261719 272.832031 56.261719 276.960938 Z M 56.261719 276.960938 "/>
<path style=" stroke:none;fill-rule:nonzero;fill:rgb(100%,72.156863%,72.156863%);fill-opacity:1;" d="M 69.523438 89.125 C 69.523438 96.433594 63.585938 102.355469 56.261719 102.355469 C 48.9375 102.355469 43 96.433594 43 89.125 C 43 81.816406 48.9375 75.890625 56.261719 75.890625 C 63.585938 75.890625 69.523438 81.816406 69.523438 89.125 Z M 69.523438 89.125 "/>
<path style=" stroke:none;fill-rule:nonzero;fill:rgb(100%,72.156863%,72.156863%);fill-opacity:1;" d="M 101.609375 175.421875 C 101.421875 173.9375 100.585938 172.613281 99.324219 171.804688 C 98.0625 170.996094 96.507812 170.785156 95.078125 171.230469 L 87.667969 162.363281 L 81.167969 165.546875 L 91.8125 177.917969 C 92.742188 180.320312 95.324219 181.648438 97.820312 181.011719 C 100.320312 180.375 101.949219 177.972656 101.609375 175.421875 Z M 101.609375 175.421875 "/>
<path style=" stroke:none;fill-rule:nonzero;fill:rgb(100%,72.156863%,72.156863%);fill-opacity:1;" d="M 37.820312 184.386719 C 38.460938 183.035156 38.46875 181.46875 37.839844 180.113281 C 37.210938 178.753906 36.011719 177.746094 34.566406 177.355469 L 33.078125 165.90625 L 25.882812 165.113281 L 28.210938 181.25 C 27.703125 183.773438 29.167969 186.277344 31.621094 187.078125 C 34.070312 187.878906 36.734375 186.722656 37.820312 184.386719 Z M 37.820312 184.386719 "/>
<path style=" stroke:none;fill-rule:nonzero;fill:rgb(80%,80%,80%);fill-opacity:1;" d="M 27.753906 177.386719 C 26.550781 177.386719 25.527344 176.507812 25.351562 175.316406 L 21.8125 151.527344 C 21.367188 148.53125 21.726562 145.472656 22.855469 142.664062 L 33.722656 115.59375 C 34.628906 113.34375 36.671875 111.742188 39.082031 111.402344 C 41.488281 111.066406 43.898438 112.035156 45.390625 113.953125 C 46.9375 115.929688 47.261719 118.597656 46.234375 120.882812 L 41.109375 132.320312 C 35.363281 145.152344 33.195312 159.292969 34.832031 173.25 C 34.96875 174.414062 34.253906 175.507812 33.132812 175.851562 L 28.46875 177.28125 C 28.238281 177.351562 27.996094 177.386719 27.753906 177.386719 Z M 27.753906 177.386719 "/>
<path style=" stroke:none;fill-rule:nonzero;fill:rgb(18.431373%,18.039216%,25.490196%);fill-opacity:1;" d="M 53.03125 102.355469 C 47.585938 102.472656 42.554688 99.460938 40.097656 94.605469 C 37.640625 89.753906 38.195312 83.925781 41.519531 79.621094 C 44.847656 75.316406 50.355469 73.296875 55.683594 74.433594 C 58.601562 72.667969 61.992188 71.476562 65.390625 71.78125 C 68.789062 72.082031 72.148438 74.097656 73.417969 77.253906 C 74.691406 80.414062 73.324219 84.578125 70.164062 85.863281 C 68.140625 86.6875 65.851562 86.289062 63.691406 85.957031 C 61.527344 85.625 59.167969 85.40625 57.289062 86.519531 C 55.40625 87.632812 54.558594 90.617188 56.246094 92.007812 C 58.074219 93.578125 58.738281 96.117188 57.910156 98.378906 C 57.0625 100.5625 54.753906 102.320312 53.03125 102.355469 Z M 53.03125 102.355469 "/>
<path style=" stroke:none;fill-rule:nonzero;fill:rgb(18.431373%,18.039216%,25.490196%);fill-opacity:1;" d="M 36.386719 266.457031 C 35.730469 266.457031 35.101562 266.195312 34.644531 265.726562 C 34.1875 265.257812 33.9375 264.625 33.957031 263.96875 L 36.316406 174.632812 L 36.574219 174.628906 L 75.570312 173.78125 L 82.304688 260.648438 C 82.382812 261.734375 81.722656 262.738281 80.695312 263.105469 L 80.621094 263.121094 L 72.96875 263.585938 C 72.316406 263.808594 71.597656 263.738281 71 263.402344 C 70.398438 263.066406 69.96875 262.488281 69.820312 261.820312 L 57.34375 206.113281 C 57.257812 205.734375 56.914062 205.46875 56.527344 205.480469 C 56.136719 205.492188 55.8125 205.777344 55.75 206.164062 L 46.535156 264.019531 C 46.351562 265.148438 45.402344 265.996094 44.257812 266.058594 L 36.507812 266.453125 C 36.46875 266.457031 36.425781 266.457031 36.386719 266.457031 Z M 36.386719 266.457031 "/>
<path style=" stroke:none;fill-rule:nonzero;fill:rgb(80%,80%,80%);fill-opacity:1;" d="M 47.863281 182.027344 C 43.011719 182.027344 38.773438 181.296875 36.433594 179.210938 C 34.929688 177.867188 34.277344 176.042969 34.5 173.789062 C 35.332031 165.304688 33.890625 146.714844 32.535156 132.613281 C 31.90625 125.933594 33.992188 119.28125 38.324219 114.148438 C 42.492188 109.171875 48.507812 106.105469 54.992188 105.652344 C 59.457031 105.332031 69.910156 104.59375 73.160156 112.898438 C 78.042969 125.375 75.652344 131.097656 73.34375 136.628906 C 71.382812 141.328125 69.355469 146.191406 71.839844 155.316406 C 73.214844 160.363281 74.878906 165.328125 76.824219 170.1875 C 78.167969 173.632812 78.847656 175.359375 78.222656 176.488281 C 77.730469 177.378906 76.5 177.769531 74.40625 178.171875 C 73.722656 178.304688 72.820312 178.496094 71.746094 178.726562 C 66.273438 179.886719 56.167969 182.027344 47.863281 182.027344 Z M 47.863281 182.027344 "/>
<path style=" stroke:none;fill-rule:nonzero;fill:rgb(80%,80%,80%);fill-opacity:1;" d="M 87.707031 174.210938 C 87.6875 174.210938 87.671875 174.210938 87.652344 174.210938 C 86.945312 174.191406 86.277344 173.871094 85.828125 173.324219 L 72.082031 156.609375 C 69.148438 153.039062 67.214844 148.753906 66.480469 144.191406 L 62.25 117.800781 C 61.859375 115.375 62.816406 112.933594 64.742188 111.410156 C 66.671875 109.886719 69.273438 109.523438 71.546875 110.460938 C 73.820312 111.394531 75.410156 113.484375 75.703125 115.921875 L 77.386719 129.917969 C 78.941406 142.851562 83.96875 155.125 91.9375 165.441406 L 92.898438 166.6875 C 93.613281 167.613281 93.5625 168.917969 92.777344 169.789062 L 89.511719 173.40625 C 89.054688 173.917969 88.398438 174.210938 87.707031 174.210938 Z M 87.707031 174.210938 "/>
<path style=" stroke:none;fill-rule:nonzero;fill:rgb(24.705882%,23.921569%,33.72549%);fill-opacity:1;" d="M 162.667969 41.429688 C 162.667969 36.394531 158.621094 32.3125 153.625 32.3125 C 148.632812 32.3125 144.582031 36.394531 144.582031 41.429688 C 144.582031 46.46875 148.632812 50.550781 153.625 50.550781 C 158.621094 50.550781 162.667969 46.46875 162.667969 41.429688 Z M 162.667969 41.429688 "/>
<path style=" stroke:none;fill-rule:nonzero;fill:rgb(24.705882%,23.921569%,33.72549%);fill-opacity:1;" d="M 155.433594 46.296875 L 153.59375 46.296875 L 153.59375 39.296875 C 152.914062 39.933594 152.101562 40.414062 151.214844 40.703125 L 151.214844 39.019531 C 151.785156 38.808594 152.3125 38.503906 152.78125 38.117188 C 153.308594 37.722656 153.710938 37.183594 153.941406 36.566406 L 155.433594 36.566406 Z M 155.433594 46.296875 "/>
<path style=" stroke:none;fill-rule:nonzero;fill:rgb(0%,74.901961%,65.098039%);fill-opacity:1;" d="M 162.667969 41.429688 C 162.667969 36.394531 158.621094 32.3125 153.625 32.3125 C 148.632812 32.3125 144.582031 36.394531 144.582031 41.429688 C 144.582031 46.46875 148.632812 50.550781 153.625 50.550781 C 158.621094 50.550781 162.667969 46.46875 162.667969 41.429688 Z M 162.667969 41.429688 "/>
<path style=" stroke:none;fill-rule:nonzero;fill:rgb(100%,100%,100%);fill-opacity:1;" d="M 155.433594 46.296875 L 153.59375 46.296875 L 153.59375 39.296875 C 152.914062 39.933594 152.101562 40.414062 151.214844 40.703125 L 151.214844 39.019531 C 151.785156 38.808594 152.3125 38.503906 152.78125 38.117188 C 153.308594 37.722656 153.710938 37.183594 153.941406 36.566406 L 155.433594 36.566406 Z M 155.433594 46.296875 "/>
<path style=" stroke:none;fill-rule:nonzero;fill:rgb(24.705882%,23.921569%,33.72549%);fill-opacity:1;" d="M 249.828125 64.246094 C 249.828125 69.28125 245.734375 73.367188 240.683594 73.367188 C 235.636719 73.367188 231.542969 69.28125 231.542969 64.246094 C 231.542969 59.207031 235.636719 55.125 240.683594 55.125 C 245.734375 55.125 249.828125 59.207031 249.828125 64.246094 Z M 249.828125 64.246094 "/>
<path style=" stroke:none;fill-rule:nonzero;fill:rgb(24.705882%,23.921569%,33.72549%);fill-opacity:1;" d="M 239.597656 65.738281 C 239.566406 66.226562 239.707031 66.710938 239.992188 67.109375 C 240.195312 67.40625 240.527344 67.585938 240.886719 67.59375 C 241.203125 67.597656 241.503906 67.453125 241.695312 67.199219 C 241.945312 66.8125 242.058594 66.355469 242.019531 65.898438 C 242.058594 65.417969 241.9375 64.941406 241.671875 64.539062 C 241.46875 64.269531 241.152344 64.109375 240.816406 64.105469 C 240.476562 64.101562 240.15625 64.253906 239.949219 64.519531 C 239.691406 64.871094 239.566406 65.300781 239.597656 65.738281 Z M 243.5625 61.753906 L 241.871094 61.949219 C 241.859375 61.652344 241.742188 61.367188 241.546875 61.144531 C 241.367188 60.964844 241.121094 60.871094 240.867188 60.882812 C 240.488281 60.886719 240.136719 61.082031 239.933594 61.402344 C 239.59375 62.074219 239.429688 62.816406 239.449219 63.566406 C 239.832031 63.054688 240.433594 62.757812 241.074219 62.761719 C 241.796875 62.757812 242.484375 63.078125 242.949219 63.632812 C 243.488281 64.253906 243.765625 65.058594 243.730469 65.878906 C 243.773438 66.738281 243.480469 67.582031 242.910156 68.226562 C 242.324219 68.832031 241.503906 69.152344 240.664062 69.105469 C 239.824219 69.058594 239.042969 68.652344 238.527344 67.988281 C 237.933594 67.242188 237.636719 66.015625 237.636719 64.3125 C 237.636719 62.566406 237.949219 61.308594 238.566406 60.539062 C 239.136719 59.789062 240.03125 59.359375 240.976562 59.382812 C 241.605469 59.359375 242.21875 59.574219 242.695312 59.988281 C 243.183594 60.457031 243.488281 61.082031 243.5625 61.753906 Z M 243.5625 61.753906 "/>
<path style=" stroke:none;fill-rule:nonzero;fill:rgb(0%,74.901961%,65.098039%);fill-opacity:1;" d="M 249.828125 64.246094 C 249.828125 69.28125 245.734375 73.367188 240.683594 73.367188 C 235.636719 73.367188 231.542969 69.28125 231.542969 64.246094 C 231.542969 59.207031 235.636719 55.125 240.683594 55.125 C 245.734375 55.125 249.828125 59.207031 249.828125 64.246094 Z M 249.828125 64.246094 "/>
<path style=" stroke:none;fill-rule:nonzero;fill:rgb(100%,100%,100%);fill-opacity:1;" d="M 239.597656 65.738281 C 239.566406 66.226562 239.707031 66.710938 239.992188 67.109375 C 240.195312 67.40625 240.527344 67.585938 240.886719 67.59375 C 241.203125 67.597656 241.503906 67.453125 241.695312 67.199219 C 241.945312 66.8125 242.058594 66.355469 242.019531 65.898438 C 242.058594 65.417969 241.9375 64.941406 241.671875 64.539062 C 241.46875 64.269531 241.152344 64.109375 240.816406 64.105469 C 240.476562 64.101562 240.15625 64.253906 239.949219 64.519531 C 239.691406 64.871094 239.566406 65.300781 239.597656 65.738281 Z M 243.5625 61.753906 L 241.871094 61.949219 C 241.859375 61.652344 241.742188 61.367188 241.546875 61.144531 C 241.367188 60.964844 241.121094 60.871094 240.867188 60.882812 C 240.488281 60.886719 240.136719 61.082031 239.933594 61.402344 C 239.59375 62.074219 239.429688 62.816406 239.449219 63.566406 C 239.832031 63.054688 240.433594 62.757812 241.074219 62.761719 C 241.796875 62.757812 242.484375 63.078125 242.949219 63.632812 C 243.488281 64.253906 243.765625 65.058594 243.730469 65.878906 C 243.773438 66.738281 243.480469 67.582031 242.910156 68.226562 C 242.324219 68.832031 241.503906 69.152344 240.664062 69.105469 C 239.824219 69.058594 239.042969 68.652344 238.527344 67.988281 C 237.933594 67.242188 237.636719 66.015625 237.636719 64.3125 C 237.636719 62.566406 237.949219 61.308594 238.566406 60.539062 C 239.136719 59.789062 240.03125 59.359375 240.976562 59.382812 C 241.605469 59.359375 242.21875 59.574219 242.695312 59.988281 C 243.183594 60.457031 243.488281 61.082031 243.5625 61.753906 Z M 243.5625 61.753906 "/>
<path style=" stroke:none;fill-rule:nonzero;fill:rgb(24.705882%,23.921569%,33.72549%);fill-opacity:1;" d="M 211.359375 134.714844 C 211.359375 139.75 207.265625 143.835938 202.214844 143.835938 C 197.167969 143.835938 193.074219 139.75 193.074219 134.714844 C 193.074219 129.675781 197.167969 125.59375 202.214844 125.59375 C 207.265625 125.59375 211.359375 129.675781 211.359375 134.714844 Z M 211.359375 134.714844 "/>
<path style=" stroke:none;fill-rule:nonzero;fill:rgb(24.705882%,23.921569%,33.72549%);fill-opacity:1;" d="M 201.085938 132.433594 C 201.066406 132.746094 201.175781 133.054688 201.386719 133.285156 C 201.597656 133.492188 201.886719 133.601562 202.183594 133.589844 C 202.484375 133.605469 202.777344 133.492188 202.992188 133.28125 C 203.207031 133.050781 203.316406 132.742188 203.296875 132.425781 C 203.3125 132.125 203.203125 131.828125 202.996094 131.605469 C 202.789062 131.394531 202.5 131.285156 202.203125 131.296875 C 201.898438 131.28125 201.605469 131.394531 201.386719 131.609375 C 201.179688 131.832031 201.070312 132.128906 201.085938 132.433594 Z M 200.921875 136.511719 C 200.894531 136.9375 201.027344 137.355469 201.296875 137.6875 C 201.53125 137.960938 201.875 138.117188 202.234375 138.109375 C 202.585938 138.117188 202.917969 137.96875 203.144531 137.703125 C 203.40625 137.371094 203.535156 136.953125 203.507812 136.53125 C 203.523438 136.140625 203.394531 135.757812 203.140625 135.457031 C 202.90625 135.191406 202.566406 135.042969 202.210938 135.050781 C 201.828125 135.027344 201.460938 135.199219 201.238281 135.511719 C 201.03125 135.804688 200.921875 136.15625 200.921875 136.511719 Z M 200.71875 134.273438 C 200.304688 134.109375 199.953125 133.824219 199.714844 133.449219 C 199.507812 133.105469 199.398438 132.707031 199.402344 132.304688 C 199.382812 131.640625 199.648438 131 200.128906 130.542969 C 201.339844 129.617188 203.023438 129.617188 204.238281 130.542969 C 204.71875 131 204.984375 131.640625 204.964844 132.304688 C 204.984375 133.160156 204.480469 133.9375 203.6875 134.273438 C 204.664062 134.632812 205.296875 135.574219 205.265625 136.609375 C 205.308594 137.414062 205.007812 138.199219 204.433594 138.765625 C 203.859375 139.332031 203.074219 139.628906 202.265625 139.578125 C 201.507812 139.605469 200.761719 139.363281 200.160156 138.894531 C 199.5 138.359375 199.132812 137.539062 199.167969 136.6875 C 199.164062 136.191406 199.292969 135.699219 199.542969 135.269531 C 199.816406 134.816406 200.226562 134.46875 200.71875 134.273438 Z M 200.71875 134.273438 "/>
<path style=" stroke:none;fill-rule:nonzero;fill:rgb(0%,74.901961%,65.098039%);fill-opacity:1;" d="M 211.359375 134.714844 C 211.359375 139.75 207.265625 143.835938 202.214844 143.835938 C 197.167969 143.835938 193.074219 139.75 193.074219 134.714844 C 193.074219 129.675781 197.167969 125.59375 202.214844 125.59375 C 207.265625 125.59375 211.359375 129.675781 211.359375 134.714844 Z M 211.359375 134.714844 "/>
<path style=" stroke:none;fill-rule:nonzero;fill:rgb(100%,100%,100%);fill-opacity:1;" d="M 201.085938 132.433594 C 201.066406 132.746094 201.175781 133.054688 201.386719 133.285156 C 201.597656 133.492188 201.886719 133.601562 202.183594 133.589844 C 202.484375 133.605469 202.777344 133.492188 202.992188 133.28125 C 203.207031 133.050781 203.316406 132.742188 203.296875 132.425781 C 203.3125 132.125 203.203125 131.828125 202.996094 131.605469 C 202.789062 131.394531 202.5 131.285156 202.203125 131.296875 C 201.898438 131.28125 201.605469 131.394531 201.386719 131.609375 C 201.179688 131.832031 201.070312 132.128906 201.085938 132.433594 Z M 200.921875 136.511719 C 200.894531 136.9375 201.027344 137.355469 201.296875 137.6875 C 201.53125 137.960938 201.875 138.117188 202.234375 138.109375 C 202.585938 138.117188 202.917969 137.96875 203.144531 137.703125 C 203.40625 137.371094 203.535156 136.953125 203.507812 136.53125 C 203.523438 136.140625 203.394531 135.757812 203.140625 135.457031 C 202.90625 135.191406 202.566406 135.042969 202.210938 135.050781 C 201.828125 135.027344 201.460938 135.199219 201.238281 135.511719 C 201.03125 135.804688 200.921875 136.15625 200.921875 136.511719 Z M 200.71875 134.273438 C 200.304688 134.109375 199.953125 133.824219 199.714844 133.449219 C 199.507812 133.105469 199.398438 132.707031 199.402344 132.304688 C 199.382812 131.640625 199.648438 131 200.128906 130.542969 C 201.339844 129.617188 203.023438 129.617188 204.238281 130.542969 C 204.71875 131 204.984375 131.640625 204.964844 132.304688 C 204.984375 133.160156 204.480469 133.9375 203.6875 134.273438 C 204.664062 134.632812 205.296875 135.574219 205.265625 136.609375 C 205.308594 137.414062 205.007812 138.199219 204.433594 138.765625 C 203.859375 139.332031 203.074219 139.628906 202.265625 139.578125 C 201.507812 139.605469 200.761719 139.363281 200.160156 138.894531 C 199.5 138.359375 199.132812 137.539062 199.167969 136.6875 C 199.164062 136.191406 199.292969 135.699219 199.542969 135.269531 C 199.816406 134.816406 200.226562 134.46875 200.71875 134.273438 Z M 200.71875 134.273438 "/>
<path style=" stroke:none;fill-rule:nonzero;fill:rgb(80%,80%,80%);fill-opacity:1;" d="M 125.269531 277.984375 L 0.539062 277.984375 C 0.242188 277.984375 0 277.742188 0 277.445312 C 0 277.148438 0.242188 276.90625 0.539062 276.90625 L 125.269531 276.90625 C 125.566406 276.90625 125.808594 277.148438 125.808594 277.445312 C 125.808594 277.742188 125.566406 277.984375 125.269531 277.984375 Z M 125.269531 277.984375 "/>
</g>
</svg>
