<?xml version="1.0" standalone="no"?>
<!DOCTYPE svg PUBLIC "-//W3C//DTD SVG 20010904//EN"
 "http://www.w3.org/TR/2001/REC-SVG-20010904/DTD/svg10.dtd">
<svg version="1.0" xmlns="http://www.w3.org/2000/svg"
 width="558.000000pt" height="448.000000pt" viewBox="0 0 558.000000 448.000000"
 preserveAspectRatio="xMidYMid meet">

<g transform="translate(0.000000,448.000000) scale(0.100000,-0.100000)"
fill="#000000" stroke="none">
<path d="M1785 3520 c-3 -6 1 -7 9 -4 18 7 21 14 7 14 -6 0 -13 -4 -16 -10z"/>
<path d="M3079 3431 c-85 -20 -86 -20 -151 -69 -53 -40 -88 -107 -88 -169 0
-47 49 -153 82 -179 22 -17 24 -25 20 -79 -4 -63 20 -201 38 -219 13 -13 30 9
30 41 0 11 13 50 30 85 16 34 30 70 30 79 0 14 11 15 74 11 58 -3 95 1 175 22
56 14 104 26 106 26 3 0 5 -11 5 -24 0 -61 66 -73 135 -26 l44 30 17 -35 c9
-19 31 -44 48 -55 75 -46 86 -63 86 -135 l0 -67 34 21 c18 12 49 21 69 21 34
0 35 1 52 65 41 149 -20 330 -122 367 -23 9 -34 20 -39 41 -9 43 -69 104 -159
162 -95 61 -116 70 -215 90 -96 19 -205 18 -301 -4z"/>
<path d="M2580 3400 c-9 -6 -10 -10 -3 -10 6 0 15 5 18 10 8 12 4 12 -15 0z"/>
<path d="M1809 3386 c8 -10 9 -16 1 -19 -6 -3 -5 -4 2 -3 19 4 20 23 2 30 -14
5 -15 4 -5 -8z"/>
<path d="M2575 3370 c-3 -6 1 -7 9 -4 18 7 21 14 7 14 -6 0 -13 -4 -16 -10z"/>
<path d="M2546 3204 c-5 -14 -4 -15 9 -4 17 14 19 20 6 20 -5 0 -12 -7 -15
-16z"/>
<path d="M4460 2929 c0 -5 5 -7 10 -4 6 3 10 8 10 11 0 2 -4 4 -10 4 -5 0 -10
-5 -10 -11z"/>
<path d="M4655 2870 c3 -5 8 -10 11 -10 2 0 4 5 4 10 0 6 -5 10 -11 10 -5 0
-7 -4 -4 -10z"/>
<path d="M3073 2783 c-12 -2 -27 -10 -33 -18 -20 -25 -2 -33 39 -19 28 9 48
10 72 4 19 -6 40 -10 46 -10 17 0 16 27 -1 33 -23 9 -100 15 -123 10z"/>
<path d="M3397 2769 c-32 -18 -7 -29 53 -22 41 4 64 2 75 -7 8 -7 23 -9 32 -5
16 6 16 8 -6 26 -26 21 -122 26 -154 8z"/>
<path d="M3078 2689 c-10 -5 -18 -20 -17 -32 l0 -22 16 23 c20 28 68 30 85 2
15 -23 28 -26 28 -7 0 38 -71 60 -112 36z"/>
<path d="M3417 2682 c-17 -19 -23 -42 -11 -42 4 0 17 11 29 24 26 28 57 25 80
-7 15 -21 15 -21 15 -1 0 11 -5 25 -12 32 -19 19 -82 15 -101 -6z"/>
<path d="M1346 2638 c3 -5 10 -6 15 -3 13 9 11 12 -6 12 -8 0 -12 -4 -9 -9z"/>
<path d="M1630 2400 c0 -5 5 -10 11 -10 5 0 7 5 4 10 -3 6 -8 10 -11 10 -2 0
-4 -4 -4 -10z"/>
<path d="M1818 2078 c5 -5 16 -8 23 -6 8 3 3 7 -10 11 -17 4 -21 3 -13 -5z"/>
<path d="M3254 1994 c-10 -8 -13 -12 -5 -8 11 5 13 1 7 -22 -5 -21 -4 -25 4
-14 8 13 10 12 10 -3 0 -58 118 -157 186 -157 48 0 119 32 151 69 32 36 67
114 55 125 -15 16 -31 2 -44 -36 -15 -48 -56 -81 -120 -99 -32 -8 -51 -7 -95
7 -60 19 -83 45 -105 117 -13 42 -16 43 -44 21z"/>
<path d="M3684 1903 c10 -113 15 -155 24 -199 l9 -39 42 85 c53 104 65 118
107 126 19 3 31 10 28 16 -19 30 -154 88 -206 88 -7 0 -9 -24 -4 -77z"/>
<path d="M3105 1930 c3 -5 11 -10 16 -10 6 0 7 5 4 10 -3 6 -11 10 -16 10 -6
0 -7 -4 -4 -10z"/>
<path d="M2937 1854 c-15 -8 -39 -34 -54 -57 -33 -51 -82 -148 -83 -162 0 -6
-9 -28 -20 -49 -10 -22 -17 -43 -14 -47 3 -5 43 -9 89 -9 80 0 85 1 89 23 3
12 12 67 21 122 15 94 43 171 69 187 22 15 -69 7 -97 -8z"/>
<path d="M3990 1840 c-9 -6 -10 -10 -3 -10 6 0 15 5 18 10 8 12 4 12 -15 0z"/>
<path d="M4046 1748 c3 -5 10 -6 15 -3 13 9 11 12 -6 12 -8 0 -12 -4 -9 -9z"/>
<path d="M2984 1521 c4 -6 13 -11 21 -11 16 0 31 -46 47 -148 7 -50 14 -69 20
-60 5 8 6 -1 2 -24 -3 -20 -2 -43 2 -50 4 -7 7 -27 5 -45 -2 -27 1 -32 13 -27
9 3 17 18 17 33 2 22 2 23 6 4 2 -12 -3 -33 -13 -47 -9 -14 -12 -26 -6 -26 6
0 13 6 15 13 3 7 6 5 6 -5 1 -10 -3 -18 -9 -18 -5 0 -10 -12 -9 -27 0 -24 2
-25 8 -9 7 18 8 18 14 -5 10 -36 8 -61 -3 -54 -11 7 -5 -33 12 -70 6 -15 7
-13 3 8 -4 20 -2 27 6 22 7 -5 9 -24 6 -54 -7 -59 4 -123 23 -129 13 -5 13 -3
2 11 -10 12 -11 23 -4 44 l10 28 0 -30 c1 -16 2 -41 4 -55 5 -33 -3 -49 -13
-24 -6 16 -8 14 -8 -9 -1 -16 3 -26 7 -23 5 3 9 -17 8 -44 -1 -55 7 -69 29
-50 31 26 28 -1 -3 -30 -18 -16 -32 -35 -32 -43 0 -8 -8 -21 -18 -30 -17 -16
-91 -17 -859 -17 l-840 0 24 88 c12 48 23 97 23 108 0 12 11 29 25 38 19 12
25 25 25 51 0 54 -19 65 -115 65 -57 0 -85 4 -88 13 -4 10 -6 9 -6 0 -1 -10
-29 -13 -107 -13 -58 0 -114 -5 -125 -10 -35 -19 -18 -120 21 -120 4 0 11 -21
14 -47 10 -69 28 -146 39 -161 8 -9 -63 -12 -347 -12 -252 0 -356 -3 -356 -11
0 -8 25 -9 81 -5 44 3 875 6 1846 6 l1766 1 -7 152 c-11 248 -43 572 -77 781
-9 53 -14 65 -21 52 -5 -9 -7 -24 -4 -32 6 -16 -54 -247 -79 -301 -10 -22 -24
-35 -46 -41 -30 -7 -34 -13 -56 -92 -48 -169 -53 -184 -77 -220 -14 -22 -46
-48 -79 -65 -31 -16 -53 -33 -51 -37 3 -4 1 -8 -3 -8 -9 0 -43 -72 -43 -90 0
-6 -73 -10 -195 -10 l-195 0 0 30 c0 26 -4 30 -26 30 -20 0 -25 4 -20 16 3 9
6 18 6 20 0 3 5 2 10 -1 13 -8 13 -1 -1 68 -7 31 -15 57 -19 57 -3 0 -7 15 -7
33 -3 75 -40 328 -62 417 -11 41 -25 108 -32 148 -13 78 -25 94 -83 108 -21 5
-27 4 -22 -5z m76 -63 c0 -16 -3 -19 -11 -11 -6 6 -8 16 -5 22 11 17 16 13 16
-11z m24 -103 c7 -45 2 -38 -13 19 -6 22 -6 35 -1 30 4 -5 11 -27 14 -49z m18
-88 c2 -23 -1 -34 -9 -34 -14 0 -17 25 -7 51 9 23 11 20 16 -17z m123 -667
c-3 -5 2 -10 11 -10 10 0 14 -3 10 -7 -11 -11 -35 -12 -42 -2 -7 11 4 29 17
29 6 0 7 -4 4 -10z m293 -17 c-10 -2 -28 -2 -40 0 -13 2 -5 4 17 4 22 1 32 -1
23 -4z m119 1 c-3 -3 -12 -4 -19 -1 -8 3 -5 6 6 6 11 1 17 -2 13 -5z m58 -33
c0 -8 -7 -16 -15 -19 -8 -3 -12 -1 -8 3 4 5 2 15 -4 23 -10 12 -9 14 7 11 11
-3 20 -11 20 -18z m-475 -16 c0 -1 -14 -5 -32 -7 -27 -4 -29 -3 -14 8 15 10
46 10 46 -1z m313 -2 c-57 -2 -149 -2 -205 0 -57 1 -11 3 102 3 113 0 159 -2
103 -3z"/>
<path d="M1251 1274 c0 -11 3 -14 6 -6 3 7 2 16 -1 19 -3 4 -6 -2 -5 -13z"/>
<path d="M1261 1245 c0 -5 6 -30 13 -55 8 -25 15 -36 15 -25 -1 21 -27 98 -28
80z"/>
<path d="M3541 1194 c0 -11 3 -14 6 -6 3 7 2 16 -1 19 -3 4 -6 -2 -5 -13z"/>
<path d="M3552 1161 c-11 -7 -11 -9 0 -14 9 -3 15 1 15 9 0 8 -1 14 -1 14 -1
0 -7 -4 -14 -9z"/>
<path d="M1291 1124 c0 -11 3 -14 6 -6 3 7 2 16 -1 19 -3 4 -6 -2 -5 -13z"/>
<path d="M3541 1124 c0 -11 3 -14 6 -6 3 7 2 16 -1 19 -3 4 -6 -2 -5 -13z"/>
<path d="M1302 1080 c0 -8 4 -26 8 -40 6 -20 8 -21 8 -5 0 11 -3 29 -8 40 -5
12 -8 14 -8 5z"/>
<path d="M1331 924 c0 -11 3 -14 6 -6 3 7 2 16 -1 19 -3 4 -6 -2 -5 -13z"/>
<path d="M4585 520 l-120 -6 138 -2 c75 -1 137 0 137 2 0 9 -43 11 -155 6z"/>
<path d="M4203 513 c15 -2 39 -2 55 0 15 2 2 4 -28 4 -30 0 -43 -2 -27 -4z"/>
<path d="M4818 513 c28 -2 76 -2 105 0 28 2 5 3 -53 3 -58 0 -81 -1 -52 -3z"/>
</g>
</svg>
