<?xml version="1.0" encoding="UTF-8"?>
<svg xmlns="http://www.w3.org/2000/svg" xmlns:xlink="http://www.w3.org/1999/xlink" width="750pt" height="633pt" viewBox="0 0 750 633" version="1.1">
<defs>
<filter id="alpha" filterUnits="objectBoundingBox" x="0%" y="0%" width="100%" height="100%">
  <feColorMatrix type="matrix" in="SourceGraphic" values="0 0 0 0 1 0 0 0 0 1 0 0 0 0 1 0 0 0 1 0"/>
</filter>
<mask id="mask0">
  <g filter="url(#alpha)">
<rect x="0" y="0" width="750" height="633" style="fill:rgb(0%,0%,0%);fill-opacity:0.101961;stroke:none;"/>
  </g>
</mask>
<clipPath id="clip1">
  <rect x="0" y="0" width="750" height="633"/>
</clipPath>
<g id="surface5" clip-path="url(#clip1)">
<path style=" stroke:none;fill-rule:nonzero;fill:rgb(0%,0%,0%);fill-opacity:1;" d="M 478.078125 225.382812 C 478.078125 225.382812 480.550781 234.921875 475.066406 241.679688 C 469.585938 248.433594 498.632812 272.503906 498.632812 272.503906 L 513.957031 269.867188 C 513.957031 269.867188 510.578125 240.554688 515.117188 233.132812 C 519.652344 225.710938 478.078125 225.382812 478.078125 225.382812 Z M 478.078125 225.382812 "/>
</g>
<mask id="mask1">
  <g filter="url(#alpha)">
<rect x="0" y="0" width="750" height="633" style="fill:rgb(0%,0%,0%);fill-opacity:0.101961;stroke:none;"/>
  </g>
</mask>
<clipPath id="clip2">
  <rect x="0" y="0" width="750" height="633"/>
</clipPath>
<g id="surface8" clip-path="url(#clip2)">
<path style=" stroke:none;fill-rule:nonzero;fill:rgb(0%,0%,0%);fill-opacity:1;" d="M 530.570312 419.765625 C 523.335938 414.660156 503.136719 413.394531 485.207031 412.214844 C 477.339844 411.710938 469.90625 411.214844 464.195312 410.414062 C 458.695312 409.652344 453.746094 404.625 449.351562 397.132812 C 442.691406 385.78125 437.308594 368.761719 433.164062 352.332031 C 434.734375 331.707031 437.101562 315.46875 437.101562 315.46875 C 437.101562 315.46875 432.429688 301.535156 430.9375 291.984375 C 431.988281 290.515625 433.347656 289.296875 434.914062 288.402344 C 453.933594 280.234375 472.09375 360.585938 474.398438 373.195312 C 474.441406 373.402344 474.46875 373.601562 474.5 373.769531 C 475.617188 380.261719 487.699219 385.8125 498.527344 388.007812 C 505.195312 389.363281 511.402344 389.453125 514.261719 387.691406 C 521.773438 383.082031 544.871094 401.539062 546.621094 402.0625 C 548.375 402.597656 540.960938 427.121094 530.570312 419.765625 Z M 530.570312 419.765625 "/>
</g>
</defs>
<g id="surface1">
<path style=" stroke:none;fill-rule:nonzero;fill:rgb(25.490196%,67.843137%,21.176471%);fill-opacity:1;" d="M 82.875 602.746094 C 82.875 622.667969 71.035156 629.621094 56.425781 629.621094 C 56.089844 629.621094 55.75 629.617188 55.414062 629.609375 C 54.738281 629.597656 54.066406 629.5625 53.402344 629.519531 C 40.222656 628.585938 29.976562 621.273438 29.976562 602.746094 C 29.976562 583.574219 54.476562 559.382812 56.316406 557.59375 L 56.320312 557.589844 C 56.390625 557.519531 56.425781 557.488281 56.425781 557.488281 C 56.425781 557.488281 82.875 582.828125 82.875 602.746094 Z M 82.875 602.746094 "/>
<path style=" stroke:none;fill-rule:nonzero;fill:rgb(24.705882%,23.921569%,33.72549%);fill-opacity:1;" d="M 55.464844 626.574219 L 65.136719 613.058594 L 55.4375 628.058594 L 55.414062 629.609375 C 54.738281 629.597656 54.066406 629.5625 53.402344 629.519531 L 54.445312 609.589844 L 54.4375 609.433594 L 54.457031 609.40625 L 54.554688 607.523438 L 44.832031 592.484375 L 54.585938 606.113281 L 54.609375 606.511719 L 55.394531 591.453125 L 47.074219 575.914062 L 55.496094 588.8125 L 56.316406 557.59375 L 56.320312 557.488281 L 56.320312 557.589844 L 56.183594 582.207031 L 64.46875 572.449219 L 56.148438 584.328125 L 55.929688 597.808594 L 63.667969 584.871094 L 55.898438 599.792969 L 55.777344 607.289062 L 67.007812 589.28125 L 55.734375 609.902344 Z M 55.464844 626.574219 "/>
<path style=" stroke:none;fill-rule:nonzero;fill:rgb(94.901961%,94.901961%,94.901961%);fill-opacity:1;" d="M 649.902344 349.648438 C 649.902344 505.839844 578.988281 629.054688 491.660156 632.457031 C 377.773438 636.894531 228.929688 523.335938 333.414062 349.648438 C 413.925781 215.804688 404.261719 66.835938 491.660156 66.835938 C 579.054688 66.835938 649.902344 193.453125 649.902344 349.648438 Z M 649.902344 349.648438 "/>
<path style=" stroke:none;fill-rule:nonzero;fill:rgb(25.490196%,67.843137%,21.176471%);fill-opacity:1;" d="M 332.398438 432.683594 L 558.03125 432.683594 L 558.03125 628.632812 L 332.398438 628.632812 Z M 332.398438 432.683594 "/>
<path style="fill:none;stroke-width:2;stroke-linecap:butt;stroke-linejoin:miter;stroke:rgb(24.705882%,23.921569%,33.72549%);stroke-opacity:1;stroke-miterlimit:10;" d="M 0 709.073978 L 846.022031 709.073978 " transform="matrix(0.886525,0,0,0.886555,0,0)"/>
<path style=" stroke:none;fill-rule:nonzero;fill:rgb(24.705882%,23.921569%,33.72549%);fill-opacity:1;" d="M 495.316406 0 C 485.09375 0 476.269531 7.167969 474.175781 17.175781 C 472.078125 27.179688 477.285156 37.289062 486.648438 41.390625 C 486.554688 39.730469 486.683594 38.0625 487.023438 36.433594 C 487.4375 34.679688 489.800781 24.660156 489.800781 24.660156 C 489.328125 23.582031 489.09375 22.417969 489.105469 21.246094 C 489.105469 18.042969 490.957031 15.652344 493.273438 15.652344 C 495.238281 15.652344 496.183594 17.128906 496.183594 18.890625 C 496.183594 20.871094 494.921875 23.820312 494.273438 26.558594 C 494.015625 27.589844 494.257812 28.679688 494.929688 29.5 C 495.605469 30.320312 496.628906 30.773438 497.6875 30.714844 C 501.777344 30.714844 504.535156 25.460938 504.535156 19.230469 C 504.535156 14.496094 501.34375 10.957031 495.546875 10.957031 C 492.746094 10.84375 490.019531 11.890625 488.007812 13.847656 C 486 15.800781 484.878906 18.5 484.910156 21.304688 C 484.847656 22.84375 485.355469 24.351562 486.339844 25.535156 C 486.691406 25.828125 486.816406 26.316406 486.648438 26.742188 C 486.542969 27.136719 486.308594 28.09375 486.203125 28.476562 C 486.167969 28.714844 486.015625 28.917969 485.800781 29.027344 C 485.589844 29.132812 485.335938 29.128906 485.125 29.019531 C 482.105469 27.785156 480.699219 24.484375 480.699219 20.761719 C 480.699219 14.628906 485.875 7.269531 496.136719 7.269531 C 504.382812 7.269531 509.8125 13.242188 509.8125 19.644531 C 509.8125 28.121094 505.09375 34.449219 498.152344 34.449219 C 495.816406 34.449219 493.628906 33.183594 492.878906 31.757812 C 492.878906 31.757812 491.625 36.734375 491.351562 37.699219 C 490.855469 39.335938 490.125 40.894531 489.183594 42.328125 C 497.296875 44.722656 506.066406 42.164062 511.613281 35.773438 C 517.164062 29.386719 518.472656 20.347656 514.964844 12.648438 C 511.457031 4.949219 503.777344 0.00390625 495.316406 0 Z M 495.316406 0 "/>
<path style=" stroke:none;fill-rule:nonzero;fill:rgb(24.705882%,23.921569%,33.72549%);fill-opacity:1;" d="M 708.578125 156.230469 C 706.875 156.984375 705.066406 157.484375 703.214844 157.707031 C 705.167969 156.539062 706.628906 154.703125 707.324219 152.539062 C 705.492188 153.628906 703.488281 154.394531 701.394531 154.804688 C 698.777344 152.003906 694.710938 151.085938 691.144531 152.496094 C 687.578125 153.90625 685.238281 157.355469 685.242188 161.1875 C 685.238281 161.90625 685.320312 162.621094 685.484375 163.320312 C 677.96875 162.949219 670.96875 159.394531 666.234375 153.550781 C 663.753906 157.824219 665.027344 163.289062 669.136719 166.03125 C 667.648438 165.992188 666.191406 165.59375 664.894531 164.863281 L 664.894531 164.976562 C 664.894531 169.425781 668.027344 173.257812 672.386719 174.140625 C 671.585938 174.355469 670.757812 174.46875 669.925781 174.46875 C 669.339844 174.46875 668.75 174.410156 668.171875 174.292969 C 669.394531 178.101562 672.902344 180.710938 676.898438 180.785156 C 673.59375 183.382812 669.503906 184.792969 665.296875 184.785156 C 664.554688 184.785156 663.808594 184.742188 663.070312 184.652344 C 667.324219 187.417969 672.289062 188.886719 677.363281 188.875 C 694.558594 188.875 703.949219 174.632812 703.949219 162.277344 C 703.949219 161.871094 703.941406 161.46875 703.921875 161.074219 C 705.75 159.75 707.324219 158.109375 708.578125 156.230469 Z M 708.578125 156.230469 "/>
<path style=" stroke:none;fill-rule:nonzero;fill:rgb(24.705882%,23.921569%,33.72549%);fill-opacity:1;" d="M 349.222656 27.496094 L 316.28125 27.496094 C 315.152344 27.5 314.234375 28.414062 314.234375 29.542969 L 314.234375 62.484375 C 314.234375 63.613281 315.152344 64.53125 316.28125 64.53125 L 332.75 64.53125 L 332.75 49.871094 L 328.324219 49.871094 L 328.324219 44.472656 L 332.75 44.472656 L 332.75 40.476562 C 332.75 35.695312 336.070312 33.089844 340.339844 33.089844 C 342.386719 33.089844 344.582031 33.246094 345.09375 33.3125 L 345.09375 38.308594 L 341.691406 38.308594 C 339.367188 38.308594 338.921875 39.40625 338.921875 41.027344 L 338.921875 44.472656 L 344.457031 44.472656 L 343.734375 49.871094 L 338.921875 49.871094 L 338.921875 64.53125 L 349.222656 64.53125 C 350.351562 64.53125 351.265625 63.613281 351.265625 62.484375 L 351.265625 29.542969 C 351.265625 28.414062 350.351562 27.5 349.222656 27.496094 Z M 349.222656 27.496094 "/>
<path style=" stroke:none;fill-rule:nonzero;fill:rgb(24.705882%,23.921569%,33.72549%);fill-opacity:1;" d="M 353.375 164.625 C 357.632812 164.640625 361.078125 168.085938 361.089844 172.339844 L 361.089844 187.773438 C 361.078125 192.027344 357.632812 195.472656 353.375 195.488281 L 337.945312 195.488281 C 333.691406 195.472656 330.242188 192.027344 330.230469 187.773438 L 330.230469 172.339844 C 330.242188 168.085938 333.691406 164.640625 337.945312 164.625 L 353.375 164.625 M 353.375 161.539062 L 337.945312 161.539062 C 331.988281 161.558594 327.164062 166.382812 327.144531 172.339844 L 327.144531 187.773438 C 327.164062 193.730469 331.988281 198.554688 337.945312 198.574219 L 353.375 198.574219 C 359.332031 198.554688 364.160156 193.730469 364.175781 187.773438 L 364.175781 172.339844 C 364.160156 166.382812 359.332031 161.558594 353.375 161.539062 Z M 353.375 161.539062 "/>
<path style=" stroke:none;fill-rule:nonzero;fill:rgb(24.705882%,23.921569%,33.72549%);fill-opacity:1;" d="M 355.691406 172.339844 C 354.410156 172.339844 353.375 171.304688 353.375 170.027344 C 353.375 168.75 354.410156 167.710938 355.691406 167.710938 C 356.96875 167.710938 358.003906 168.75 358.003906 170.027344 C 358.007812 170.640625 357.761719 171.230469 357.328125 171.664062 C 356.894531 172.097656 356.304688 172.34375 355.691406 172.339844 Z M 345.660156 173.882812 C 349.070312 173.882812 351.832031 176.648438 351.832031 180.054688 C 351.832031 183.464844 349.070312 186.226562 345.660156 186.226562 C 342.253906 186.226562 339.488281 183.464844 339.488281 180.054688 C 339.492188 176.648438 342.253906 173.886719 345.660156 173.882812 M 345.660156 170.796875 C 340.546875 170.796875 336.402344 174.945312 336.402344 180.054688 C 336.402344 185.167969 340.546875 189.316406 345.660156 189.316406 C 350.773438 189.316406 354.917969 185.167969 354.917969 180.054688 C 354.917969 174.945312 350.773438 170.800781 345.660156 170.796875 Z M 345.660156 170.796875 "/>
<path style=" stroke:none;fill-rule:nonzero;fill:rgb(24.705882%,23.921569%,33.72549%);fill-opacity:1;" d="M 622.859375 9.320312 L 591.960938 9.320312 C 591.160156 9.28125 590.375 9.5625 589.78125 10.105469 C 589.1875 10.644531 588.832031 11.402344 588.796875 12.203125 L 588.796875 43.167969 C 588.839844 44.898438 590.230469 46.292969 591.960938 46.34375 L 622.847656 46.34375 C 624.539062 46.277344 625.863281 44.863281 625.820312 43.167969 L 625.820312 12.203125 C 625.832031 11.421875 625.519531 10.667969 624.960938 10.121094 C 624.402344 9.578125 623.640625 9.285156 622.859375 9.320312 Z M 600.273438 40.179688 L 594.96875 40.179688 L 594.96875 23.6875 L 600.273438 23.6875 Z M 597.804688 21.183594 L 597.765625 21.183594 C 596.175781 21.171875 594.894531 19.878906 594.902344 18.289062 C 594.90625 16.699219 596.195312 15.414062 597.785156 15.414062 C 599.375 15.414062 600.664062 16.699219 600.667969 18.289062 C 600.675781 19.878906 599.394531 21.171875 597.804688 21.183594 Z M 619.65625 40.179688 L 614.351562 40.179688 L 614.351562 31.164062 C 614.351562 29.003906 613.582031 27.527344 611.660156 27.527344 C 610.433594 27.539062 609.34375 28.320312 608.941406 29.484375 C 608.800781 29.902344 608.738281 30.34375 608.757812 30.785156 L 608.757812 40.179688 L 603.457031 40.179688 L 603.457031 23.6875 L 608.757812 23.6875 L 608.757812 25.984375 C 609.742188 24.28125 611.578125 23.253906 613.542969 23.304688 C 617.023438 23.304688 619.65625 25.597656 619.65625 30.546875 Z M 619.65625 40.179688 "/>
<path style=" stroke:none;fill-rule:nonzero;fill:rgb(18.431373%,18.039216%,25.490196%);fill-opacity:1;" d="M 476.460938 237.703125 C 476.460938 237.703125 514 238.722656 520.199219 240.976562 C 526.402344 243.234375 529.171875 259.363281 529.171875 259.363281 L 500.023438 268.527344 L 478.222656 267.292969 L 461.816406 268.453125 L 470.976562 244.457031 Z M 476.460938 237.703125 "/>
<path style=" stroke:none;fill-rule:nonzero;fill:rgb(62.352941%,38.039216%,41.568627%);fill-opacity:1;" d="M 478.078125 225.382812 C 478.078125 225.382812 480.550781 234.921875 475.066406 241.679688 C 469.585938 248.433594 498.632812 272.503906 498.632812 272.503906 L 513.957031 269.867188 C 513.957031 269.867188 510.578125 240.554688 515.117188 233.132812 C 519.652344 225.710938 478.078125 225.382812 478.078125 225.382812 Z M 478.078125 225.382812 "/>
<use xlink:href="#surface5" mask="url(#mask0)"/>
<path style=" stroke:none;fill-rule:nonzero;fill:rgb(62.352941%,38.039216%,41.568627%);fill-opacity:1;" d="M 579.992188 504.308594 L 546.179688 549.148438 L 569.253906 562.621094 L 601.011719 510.660156 Z M 579.992188 504.308594 "/>
<path style=" stroke:none;fill-rule:nonzero;fill:rgb(18.431373%,18.039216%,25.490196%);fill-opacity:1;" d="M 556.273438 549.90625 C 556.273438 549.90625 543.824219 535.4375 544.378906 538.664062 C 544.933594 541.890625 535.519531 569.25 544.277344 571.898438 C 553.035156 574.542969 628.144531 581.5625 629.175781 573.082031 C 630.210938 564.601562 606.769531 558.664062 606.769531 558.664062 C 606.769531 558.664062 592.84375 545.28125 589.757812 546.640625 C 586.671875 548.003906 556.273438 549.90625 556.273438 549.90625 Z M 556.273438 549.90625 "/>
<path style=" stroke:none;fill-rule:nonzero;fill:rgb(62.352941%,38.039216%,41.568627%);fill-opacity:1;" d="M 572.40625 547.132812 L 599.410156 593.144531 L 619.800781 581.335938 L 592.566406 543.667969 Z M 572.40625 547.132812 "/>
<path style=" stroke:none;fill-rule:nonzero;fill:rgb(18.431373%,18.039216%,25.490196%);fill-opacity:1;" d="M 615.035156 437.667969 L 607.023438 449.011719 C 607.023438 449.011719 568.8125 502.078125 572.871094 506.363281 C 576.929688 510.648438 593.828125 526.84375 602.421875 523.707031 C 611.015625 520.566406 641.550781 466.328125 641.550781 466.328125 L 633.585938 434.480469 Z M 615.035156 437.667969 "/>
<path style=" stroke:none;fill-rule:nonzero;fill:rgb(18.431373%,18.039216%,25.490196%);fill-opacity:1;" d="M 450.445312 426.933594 C 450.445312 426.933594 459 442.898438 480.6875 448.304688 C 502.375 453.710938 525.035156 464.765625 525.839844 464.625 C 526.648438 464.488281 528.929688 463.265625 529.484375 466.492188 C 530.039062 469.71875 535.984375 475.335938 535.984375 475.335938 C 535.984375 475.335938 559.941406 556.75 569.089844 556.835938 C 578.238281 556.925781 597.042969 550.371094 597.433594 547.8125 C 597.824219 545.253906 569.417969 462.117188 569.140625 460.503906 L 565.8125 441.148438 C 565.8125 441.148438 603.378906 447.144531 606.882812 448.203125 C 610.386719 449.261719 641.550781 466.328125 641.550781 466.328125 C 641.550781 466.328125 673.320312 443.429688 643.605469 420.304688 C 613.890625 397.179688 562.816406 380.214844 562.816406 380.214844 L 544.492188 375.0625 L 528.523438 374.109375 L 526.171875 365.089844 L 488.351562 367.273438 L 448.878906 384.019531 Z M 450.445312 426.933594 "/>
<path style=" stroke:none;fill-rule:nonzero;fill:rgb(62.352941%,38.039216%,41.568627%);fill-opacity:1;" d="M 529.820312 214.910156 C 529.820312 231.179688 516.628906 244.371094 500.359375 244.371094 C 484.089844 244.371094 470.898438 231.179688 470.898438 214.910156 C 470.898438 198.640625 484.089844 185.449219 500.359375 185.449219 C 516.628906 185.449219 529.820312 198.640625 529.820312 214.910156 Z M 529.820312 214.910156 "/>
<path style=" stroke:none;fill-rule:nonzero;fill:rgb(81.568627%,80.392157%,88.235294%);fill-opacity:1;" d="M 473.707031 238.589844 L 477.25 237.980469 C 477.25 237.980469 483.648438 262.621094 503.445312 266.691406 C 503.445312 266.691406 513.214844 254.992188 512.796875 253.015625 C 512.382812 251.042969 520.535156 240.503906 524.871094 246.402344 C 529.203125 252.300781 523.8125 356.195312 527.453125 358.058594 C 531.09375 359.925781 538.910156 361.902344 532.621094 368.796875 C 526.332031 375.691406 501.355469 384.964844 495.824219 381.765625 C 490.289062 378.5625 478.988281 351.445312 474.097656 342.320312 C 469.207031 333.195312 461.382812 302.15625 461.382812 302.15625 C 461.382812 302.15625 451.386719 268.167969 457.539062 260.46875 C 463.6875 252.769531 473.707031 238.589844 473.707031 238.589844 Z M 473.707031 238.589844 "/>
<path style=" stroke:none;fill-rule:nonzero;fill:rgb(18.431373%,18.039216%,25.490196%);fill-opacity:1;" d="M 501.902344 366.492188 C 501.242188 373.730469 500.117188 380.917969 498.527344 388.007812 C 497.082031 393.777344 495.398438 397.261719 493.480469 397.113281 C 488.582031 396.746094 486.355469 403.933594 485.207031 412.214844 C 483.980469 421.003906 483.980469 431.027344 483.304688 434.570312 C 482.414062 439.253906 476.714844 442.824219 465.324219 441.777344 C 458.542969 441.003906 451.882812 439.371094 445.511719 436.917969 C 430.132812 431.324219 430.589844 385.980469 433.164062 352.332031 C 434.734375 331.707031 437.101562 315.46875 437.101562 315.46875 C 437.101562 315.46875 432.429688 301.535156 430.9375 291.984375 C 430.636719 290.242188 430.488281 288.476562 430.492188 286.707031 C 430.71875 278.367188 445.949219 255.820312 455.152344 241.777344 C 464.363281 227.734375 476.933594 238.039062 476.933594 238.039062 L 472.558594 251.238281 C 472.558594 251.238281 479.339844 261.699219 479.386719 271.65625 C 479.4375 281.613281 495.617188 288.796875 501.425781 293.617188 C 505.078125 296.644531 504.988281 337.070312 501.902344 366.492188 Z M 501.902344 366.492188 "/>
<path style=" stroke:none;fill-rule:nonzero;fill:rgb(18.431373%,18.039216%,25.490196%);fill-opacity:1;" d="M 514.695312 242.753906 C 514.695312 242.753906 515.753906 244.011719 520.617188 243.398438 C 526.445312 242.664062 534.460938 244.679688 536.324219 250.246094 C 539.738281 260.453125 549.367188 301.980469 549.367188 301.980469 C 549.367188 301.980469 553.375 349.453125 555.179688 359.9375 C 556.980469 370.421875 556.085938 379.710938 557.863281 385.21875 C 559.640625 390.726562 540.320312 374.949219 533.199219 377 C 526.078125 379.054688 521.503906 352.441406 522.398438 343.152344 C 523.292969 333.863281 524.050781 323.769531 521.582031 314.230469 C 519.109375 304.6875 523.488281 279.441406 523.324219 273.65625 C 523.164062 267.871094 507.625 253.292969 514.695312 242.753906 Z M 514.695312 242.753906 "/>
<path style=" stroke:none;fill-rule:nonzero;fill:rgb(62.352941%,38.039216%,41.568627%);fill-opacity:1;" d="M 535.539062 390.300781 C 535.539062 390.300781 566.730469 407.320312 569.71875 431.542969 C 572.703125 455.761719 527.996094 408.085938 527.996094 408.085938 Z M 535.539062 390.300781 "/>
<path style=" stroke:none;fill-rule:nonzero;fill:rgb(62.352941%,38.039216%,41.568627%);fill-opacity:1;" d="M 553.34375 373.125 C 553.34375 373.125 562.902344 421.304688 577.792969 418.742188 C 592.683594 416.183594 569.476562 370.351562 569.476562 370.351562 Z M 553.34375 373.125 "/>
<path style=" stroke:none;fill-rule:nonzero;fill:rgb(18.431373%,18.039216%,25.490196%);fill-opacity:1;" d="M 604.339844 583.164062 C 604.339844 583.164062 596.714844 591.945312 594.824219 590.609375 C 592.933594 589.273438 588.585938 607.460938 592.503906 610.9375 C 596.425781 614.417969 611.523438 620.125 611.683594 625.910156 C 611.847656 631.695312 652.339844 630.546875 653.789062 624.484375 C 655.238281 618.425781 648.710938 604.597656 644.121094 602.066406 C 639.535156 599.535156 622.574219 576.21875 622.574219 576.21875 C 622.574219 576.21875 609.289062 578.160156 604.339844 583.164062 Z M 604.339844 583.164062 "/>
<use xlink:href="#surface8" mask="url(#mask1)"/>
<path style=" stroke:none;fill-rule:nonzero;fill:rgb(18.431373%,18.039216%,25.490196%);fill-opacity:1;" d="M 434.917969 283.453125 C 434.917969 283.453125 421.09375 289.984375 427.167969 320.492188 C 433.242188 351.003906 445.476562 402.875 464.191406 405.46875 C 482.90625 408.066406 520.167969 407.472656 530.566406 414.820312 C 540.964844 422.167969 548.371094 397.644531 546.621094 397.113281 C 544.871094 396.585938 521.769531 378.136719 514.257812 382.75 C 506.75 387.359375 476.300781 379.308594 474.5 368.824219 C 472.699219 358.335938 454.25 275.148438 434.917969 283.453125 Z M 434.917969 283.453125 "/>
<path style=" stroke:none;fill-rule:nonzero;fill:rgb(18.431373%,18.039216%,25.490196%);fill-opacity:1;" d="M 534.535156 268.824219 L 549.730469 304.078125 C 549.730469 304.078125 551.257812 303.316406 553.035156 308.824219 C 554.8125 314.328125 555.644531 319.167969 558.757812 322.785156 C 561.871094 326.402344 575.71875 377.996094 576.132812 380.417969 C 576.550781 382.835938 557.007812 391.179688 552.640625 384.457031 C 548.273438 377.734375 534.535156 268.824219 534.535156 268.824219 Z M 534.535156 268.824219 "/>
<path style=" stroke:none;fill-rule:nonzero;fill:rgb(18.431373%,18.039216%,25.490196%);fill-opacity:1;" d="M 483.597656 214.5 C 484.726562 214.199219 484.894531 212.699219 484.929688 211.53125 C 485.132812 205.277344 488.898438 198.859375 494.886719 197.039062 C 497.183594 196.40625 499.589844 196.273438 501.941406 196.648438 C 505.300781 197.097656 508.542969 198.179688 511.496094 199.835938 C 513.058594 200.714844 514.585938 201.769531 516.355469 202.039062 C 517.523438 202.214844 522.582031 203.683594 523.746094 203.890625 C 526.300781 204.347656 528.679688 206.636719 531.132812 205.785156 C 533.480469 204.96875 534 201.929688 534.058594 199.445312 C 534.1875 193.785156 529.890625 185.949219 526.105469 181.738281 C 523.234375 178.542969 518.910156 177.070312 514.679688 176.300781 C 509.742188 175.507812 504.738281 175.203125 499.742188 175.394531 C 492.976562 175.511719 486.023438 176.035156 479.921875 178.964844 C 473.824219 181.890625 468.699219 187.714844 468.40625 194.476562 C 468.34375 195.886719 468.488281 197.300781 468.371094 198.703125 C 468.082031 202.128906 466.261719 205.226562 465.410156 208.554688 C 464.175781 213.496094 465.089844 218.730469 467.925781 222.960938 C 470.191406 226.292969 473.75 229.308594 473.617188 233.335938 L 478.527344 228.25 C 480.039062 227.09375 480.539062 225.042969 479.726562 223.324219 L 477.988281 216.542969 C 477.542969 215.335938 477.488281 214.015625 477.839844 212.773438 C 479.703125 208.167969 481.714844 215.003906 483.597656 214.5 Z M 483.597656 214.5 "/>
<path style=" stroke:none;fill-rule:nonzero;fill:rgb(94.901961%,94.901961%,94.901961%);fill-opacity:1;" d="M 259.382812 415.734375 C 259.382812 509.664062 203.542969 542.460938 134.664062 542.460938 C 65.785156 542.460938 9.949219 509.664062 9.949219 415.734375 C 9.949219 321.804688 134.664062 202.3125 134.664062 202.3125 C 134.664062 202.3125 259.382812 321.804688 259.382812 415.734375 Z M 259.382812 415.734375 "/>
<path style=" stroke:none;fill-rule:nonzero;fill:rgb(24.705882%,23.921569%,33.72549%);fill-opacity:1;" d="M 130.121094 528.09375 L 131.398438 449.484375 L 184.554688 352.230469 L 131.597656 437.152344 L 132.171875 401.804688 L 168.808594 331.445312 L 132.324219 392.449219 L 133.359375 328.878906 L 172.589844 272.863281 L 133.519531 318.882812 L 134.164062 202.3125 L 130.109375 356.628906 L 130.441406 350.261719 L 90.558594 289.210938 L 129.804688 362.484375 L 126.085938 433.484375 L 125.976562 431.597656 L 79.996094 367.347656 L 125.835938 438.257812 L 125.375 447.136719 L 125.289062 447.269531 L 125.328125 447.996094 L 115.898438 628.128906 L 128.496094 628.128906 L 130.007812 535.085938 L 175.738281 464.351562 Z M 130.121094 528.09375 "/>
</g>
</svg>
